<?xml version="1.0" encoding="UTF-8"?>
<svg width="29px" height="28px" viewBox="0 0 29 28" version="1.1" xmlns="http://www.w3.org/2000/svg" xmlns:xlink="http://www.w3.org/1999/xlink">
    <!-- Generator: Sketch 51.3 (57544) - http://www.bohemiancoding.com/sketch -->
    <title>Group 15</title>
    <desc>Created with Sketch.</desc>
    <defs></defs>
    <g id="Mobile" stroke="none" stroke-width="1" fill="none" fill-rule="evenodd">
        <g id="adicionar-livro" transform="translate(-159.000000, -528.000000)" fill-rule="nonzero">
            <g id="Group-15" transform="translate(160.000000, 529.000000)">
                <polyline id="Path-2" stroke="#00B5DE" points="0 19 0 25.9873047 5.90112305 25.9873047"></polyline>
                <polyline id="Path-2-Copy" stroke="#00B5DE" transform="translate(3.493652, 2.950562) rotate(-270.000000) translate(-3.493652, -2.950562) " points="0.54309082 -0.54309082 0.54309082 6.44421387 6.44421387 6.44421387"></polyline>
                <polyline id="Path-2-Copy-2" stroke="#00B5DE" transform="translate(23.950562, 3.493652) rotate(-180.000000) translate(-23.950562, -3.493652) " points="21 0 21 6.98730469 26.901123 6.98730469"></polyline>
                <polyline id="Path-2-Copy-3" stroke="#00B5DE" transform="translate(23.493652, 22.950562) rotate(-90.000000) translate(-23.493652, -22.950562) " points="20.5430908 19.4569092 20.5430908 26.4442139 26.4442139 26.4442139"></polyline>
                <g id="Group-10" transform="translate(4.000000, 3.000000)" fill="#00B5DE">
                    <rect id="Rectangle-6" x="0" y="0" width="2" height="20" rx="1"></rect>
                    <rect id="Rectangle-6-Copy" x="3" y="0" width="2" height="20" rx="1"></rect>
                    <rect id="Rectangle-6-Copy-2" x="7" y="0" width="5" height="20" rx="2.5"></rect>
                    <rect id="Rectangle-6-Copy-3" x="13" y="0" width="3" height="20" rx="1.5"></rect>
                    <rect id="Rectangle-6-Copy-4" x="18" y="0" width="2" height="20" rx="1"></rect>
                </g>
            </g>
        </g>
    </g>
</svg>